/* XPM */
static char * exit_32_xpm[] = {
"32 32 448 2",
"  	c None",
". 	c #750000",
"+ 	c #840909",
"@ 	c #C73232",
"# 	c #F85050",
"$ 	c #FF5454",
"% 	c #C63131",
"& 	c #F64D4D",
"* 	c #D23434",
"= 	c #B62121",
"- 	c #B11D1D",
"; 	c #B21E1E",
"> 	c #B51F1F",
", 	c #B72121",
"' 	c #BA2323",
") 	c #BD2525",
"! 	c #BF2727",
"~ 	c #C22828",
"{ 	c #C52A2A",
"] 	c #C72C2C",
"^ 	c #C92E2E",
"/ 	c #CB2F2F",
"( 	c #CD3131",
"_ 	c #CF3232",
": 	c #D13434",
"< 	c #D33535",
"[ 	c #D53737",
"} 	c #D93939",
"| 	c #EA4545",
"1 	c #FA5050",
"2 	c #F54E4E",
"3 	c #D13333",
"4 	c #C35353",
"5 	c #DB9999",
"6 	c #DEA0A0",
"7 	c #DEA1A1",
"8 	c #DFA1A1",
"9 	c #E1A2A2",
"0 	c #E1A3A3",
"a 	c #E3A3A3",
"b 	c #E3A4A4",
"c 	c #E5A5A5",
"d 	c #E6A6A6",
"e 	c #E7A6A6",
"f 	c #E8A7A7",
"g 	c #E9A8A8",
"h 	c #EAA8A8",
"i 	c #EBA9A9",
"j 	c #EBAAAA",
"k 	c #ECAAAA",
"l 	c #EDABAB",
"m 	c #EEABAB",
"n 	c #EEA6A6",
"o 	c #E46969",
"p 	c #EB4545",
"q 	c #FB5151",
"r 	c #B62020",
"s 	c #DFA5A5",
"t 	c #E0A5A5",
"u 	c #E1A6A6",
"v 	c #E2A6A6",
"w 	c #E7B5B5",
"x 	c #EDC8C8",
"y 	c #F2D9D9",
"z 	c #F5E8E8",
"A 	c #F1E5E5",
"B 	c #E9D2D2",
"C 	c #EAC5C5",
"D 	c #EDB9B9",
"E 	c #EBADAD",
"F 	c #ECAEAE",
"G 	c #EDAEAE",
"H 	c #EEAFAF",
"I 	c #EFAFAF",
"J 	c #F0B0B0",
"K 	c #F1B0B0",
"L 	c #F0A7A7",
"M 	c #E23E3E",
"N 	c #DA9696",
"O 	c #DC9999",
"P 	c #DD9A9A",
"Q 	c #E9BDBD",
"R 	c #FBF6F6",
"S 	c #FFFFFF",
"T 	c #F8F4F4",
"U 	c #D9B1B1",
"V 	c #EBA4A4",
"W 	c #ECA5A5",
"X 	c #EDA5A5",
"Y 	c #EFA6A6",
"Z 	c #F0A5A5",
"` 	c #E23F3F",
" .	c #F94F4F",
"..	c #D68B8B",
"+.	c #D78E8E",
"@.	c #D88F8F",
"#.	c #DB9898",
"$.	c #E0CDCD",
"%.	c #E19B9B",
"&.	c #EC9D9D",
"*.	c #ED9D9D",
"=.	c #EE9E9E",
"-.	c #EF9F9F",
";.	c #F09D9D",
">.	c #E44040",
",.	c #F74E4E",
"'.	c #D38080",
").	c #D38383",
"!.	c #D48383",
"~.	c #E0A3A3",
"{.	c #FAF3F3",
"].	c #FDFCFC",
"^.	c #E9E0E0",
"/.	c #D2BEBE",
"(.	c #BC9C9C",
"_.	c #C6A3A3",
":.	c #D7C1C1",
"<.	c #EAE1E1",
"[.	c #FDFDFD",
"}.	c #F4EFEF",
"|.	c #D39A9A",
"1.	c #ED9494",
"2.	c #EE9595",
"3.	c #EF9696",
"4.	c #EF9494",
"5.	c #E64242",
"6.	c #F54C4C",
"7.	c #CE7272",
"8.	c #CF7777",
"9.	c #D17878",
"0.	c #D58484",
"a.	c #DECFCF",
"b.	c #9C6767",
"c.	c #BB6C6C",
"d.	c #D07878",
"e.	c #DF8181",
"f.	c #E18383",
"g.	c #E28484",
"h.	c #DB8080",
"i.	c #D18787",
"j.	c #E9D7D7",
"k.	c #F4EEEE",
"l.	c #C57B7B",
"m.	c #ED8C8C",
"n.	c #EE8D8D",
"o.	c #EF8C8C",
"p.	c #E84343",
"q.	c #F24A4A",
"r.	c #B52C2C",
"s.	c #CA6565",
"t.	c #CE6E6E",
"u.	c #EFCFCF",
"v.	c #FAF7F7",
"w.	c #B69191",
"x.	c #A35858",
"y.	c #D47272",
"z.	c #DC7777",
"A.	c #DD7878",
"B.	c #DE7979",
"C.	c #E07A7A",
"D.	c #E17B7B",
"E.	c #E27C7C",
"F.	c #E37D7D",
"G.	c #E57E7E",
"H.	c #DFA9A9",
"I.	c #FAF8F8",
"J.	c #DAC3C3",
"K.	c #DE7B7B",
"L.	c #EE8585",
"M.	c #F08484",
"N.	c #E94444",
"O.	c #F04949",
"P.	c #B21D1D",
"Q.	c #B62626",
"R.	c #DB9191",
"S.	c #B58E8E",
"T.	c #B15858",
"U.	c #D76C6C",
"V.	c #D96E6E",
"W.	c #DB6E6E",
"X.	c #DC7070",
"Y.	c #E59595",
"Z.	c #E79797",
"`.	c #E07272",
" +	c #E27474",
".+	c #E47474",
"++	c #E57676",
"@+	c #E67777",
"#+	c #ECACAC",
"$+	c #C38E8E",
"%+	c #EE7C7C",
"&+	c #EF7B7B",
"*+	c #ED4747",
"=+	c #B31D1D",
"-+	c #B41F1F",
";+	c #F9EDED",
">+	c #DECCCC",
",+	c #974444",
"'+	c #D46161",
")+	c #D66363",
"!+	c #D86464",
"~+	c #D96565",
"{+	c #EEB7B7",
"]+	c #D3ABAB",
"^+	c #E36C6C",
"/+	c #E56C6C",
"(+	c #E66E6E",
"_+	c #E86F6F",
":+	c #F2D6D6",
"<+	c #F6F0F0",
"[+	c #C36060",
"}+	c #F07373",
"|+	c #EC4545",
"1+	c #B72020",
"2+	c #C44646",
"3+	c #935050",
"4+	c #C85252",
"5+	c #D45858",
"6+	c #D55959",
"7+	c #D75B5B",
"8+	c #D85B5B",
"9+	c #FAEDED",
"0+	c #F2EAEA",
"a+	c #B44E4E",
"b+	c #E36262",
"c+	c #E46464",
"d+	c #E66565",
"e+	c #E86666",
"f+	c #EB7B7B",
"g+	c #FEFCFC",
"h+	c #B26666",
"i+	c #EE6060",
"j+	c #ED4646",
"k+	c #E84444",
"l+	c #B82020",
"m+	c #BA2222",
"n+	c #D47474",
"o+	c #E7D6D6",
"p+	c #992727",
"q+	c #D04949",
"r+	c #D34E4E",
"s+	c #D45050",
"t+	c #D65151",
"u+	c #D85353",
"v+	c #FBF4F4",
"w+	c #F8F3F3",
"x+	c #A54141",
"y+	c #E35A5A",
"z+	c #E45B5B",
"A+	c #E65D5D",
"B+	c #E85E5E",
"C+	c #E95F5F",
"D+	c #F9E1E1",
"E+	c #BA7F7F",
"F+	c #E94545",
"G+	c #EF4747",
"H+	c #BB2222",
"I+	c #BC2424",
"J+	c #E3A2A2",
"K+	c #CCA7A7",
"L+	c #A82525",
"M+	c #CB2E2E",
"N+	c #CF3A3A",
"O+	c #D44646",
"P+	c #D64949",
"Q+	c #D84A4A",
"R+	c #F8F2F2",
"S+	c #A53B3B",
"T+	c #E35353",
"U+	c #E55454",
"V+	c #E65555",
"W+	c #E85656",
"X+	c #EA5757",
"Y+	c #F7BFBF",
"Z+	c #D0A4A4",
"`+	c #D94141",
" @	c #F04848",
".@	c #E34040",
"+@	c #BD2424",
"@@	c #BF2626",
"#@	c #F0CECE",
"$@	c #B27979",
"%@	c #BA2A2A",
"&@	c #CD3030",
"*@	c #CF3131",
"=@	c #D53939",
"-@	c #D73F3F",
";@	c #FBF3F3",
">@	c #A53535",
",@	c #E34A4A",
"'@	c #E54C4C",
")@	c #E74B4B",
"!@	c #E84848",
"~@	c #E94646",
"{@	c #F39292",
"]@	c #E7CFCF",
"^@	c #C63C3C",
"/@	c #E03D3D",
"(@	c #C02626",
"_@	c #C12828",
":@	c #B37A7A",
"<@	c #C62E2E",
"[@	c #D43434",
"}@	c #D63636",
"|@	c #D83838",
"1@	c #A62E2E",
"2@	c #E44141",
"3@	c #E7D0D0",
"4@	c #BA3939",
"5@	c #F34B4B",
"6@	c #DC3B3B",
"7@	c #C32828",
"8@	c #C42A2A",
"9@	c #E7A4A4",
"0@	c #CEA9A9",
"a@	c #BB2C2C",
"b@	c #D43535",
"c@	c #DA3939",
"d@	c #A82F2F",
"e@	c #EC4646",
"f@	c #F8B9B9",
"g@	c #D2A5A5",
"h@	c #CB3F3F",
"i@	c #D93838",
"j@	c #C72B2B",
"k@	c #DC7A7A",
"l@	c #E8D7D7",
"m@	c #AE2A2A",
"n@	c #A93030",
"o@	c #EE4747",
"p@	c #FCDEDE",
"q@	c #BD7B7B",
"r@	c #E04646",
"s@	c #C92D2D",
"t@	c #D35151",
"u@	c #AA4242",
"v@	c #DE3C3C",
"w@	c #FCF3F3",
"x@	c #AB3131",
"y@	c #F15F5F",
"z@	c #AA5252",
"A@	c #F54D4D",
"B@	c #D33434",
"C@	c #C82D2D",
"D@	c #F9EEEE",
"E@	c #DFC5C5",
"F@	c #C93434",
"G@	c #E03E3E",
"H@	c #F3CACA",
"I@	c #E1C5C5",
"J@	c #B23434",
"K@	c #FBD0D0",
"L@	c #F6EEEE",
"M@	c #AC3737",
"N@	c #F84E4E",
"O@	c #CA2F2F",
"P@	c #DE7878",
"Q@	c #C07F7F",
"R@	c #DA3A3A",
"S@	c #E96666",
"T@	c #E6C7C7",
"U@	c #A75353",
"V@	c #D53E3E",
"W@	c #F69393",
"X@	c #BB7575",
"Y@	c #D34343",
"Z@	c #FA4F4F",
"`@	c #F84F4F",
" #	c #CC2F2F",
".#	c #CC3030",
"+#	c #D03232",
"@#	c #D23333",
"##	c #EABABA",
"$#	c #FAF6F6",
"%#	c #CE8383",
"&#	c #DF3D3D",
"*#	c #E74242",
"=#	c #D33D3D",
"-#	c #E34242",
";#	c #FDF7F7",
">#	c #DBB7B7",
",#	c #B43939",
"'#	c #F95050",
")#	c #DB4848",
"!#	c #F7ECEC",
"~#	c #E5C5C5",
"{#	c #DB5353",
"]#	c #F16060",
"^#	c #FBCFCF",
"/#	c #F5EAEA",
"(#	c #A54040",
"_#	c #EF4B4B",
":#	c #E16B6B",
"<#	c #F5EBEB",
"[#	c #FDFBFB",
"}#	c #F2DADA",
"|#	c #ECB4B4",
"1#	c #ED8F8F",
"2#	c #F49292",
"3#	c #F7B8B8",
"4#	c #F9DDDD",
"5#	c #B16060",
"6#	c #D54343",
"7#	c #FC5151",
"8#	c #FA5151",
"9#	c #C12727",
"0#	c #DB4B4B",
"a#	c #E2B9B9",
"b#	c #DCB8B8",
"c#	c #DE4646",
"d#	c #FC5252",
"e#	c #D53535",
"f#	c #DB7D7D",
"g#	c #BD3C3C",
"h#	c #F44D4D",
"i#	c #FD5252",
"j#	c #B92222",
"k#	c #E54141",
"l#	c #E14242",
"m#	c #C95858",
"n#	c #CB7E7E",
"o#	c #D4A5A5",
"p#	c #BF7B7B",
"q#	c #B95757",
"r#	c #C13D3D",
"s#	c #FE5353",
"t#	c #B11E1E",
"u#	c #EA4444",
"v#	c #E84747",
"w#	c #D94343",
"x#	c #E34646",
"y#	c #F44C4C",
"z#	c #DD3B3B",
"A#	c #991111",
"B#	c #B41E1E",
"C#	c #CA2D2D",
"D#	c #E33F3F",
"E#	c #E64141",
"F#	c #E84242",
"G#	c #E94343",
"H#	c #EB4646",
"I#	c #EE4848",
"J#	c #F74D4D",
"K#	c #DC3A3A",
"L#	c #7B0303",
"M#	c #981111",
"N#	c #AD1B1B",
"O#	c #B01C1C",
"    . . . . . . . . . . . . . . . . . . . . . . . . . . . .     ",
"  + @ # $ $ $ $ $ $ $ $ $ $ $ $ $ $ $ $ $ $ $ $ $ $ $ $ # @ +   ",
". % & * = - - - - - - ; > , ' ) ! ~ { ] ^ / ( _ : < [ } | 1 % . ",
". 2 3 4 5 6 6 6 6 6 7 8 9 0 a b c d e f g h i j k l m n o p 2 . ",
". q r 5 s s s s s t u v w x y z A B C D E E F G H I J K L M q . ",
". 1 - N 5 5 5 5 O P Q R S S S S S S S S T U V W X n Y L Z ` 1 . ",
".  .- ..+.+.+.@.#.y S S S S S S S S S S S S $.%.&.*.=.-.;.>. .. ",
". ,.- '.).).!.~.{.S S S ].^./.(._.:.<.[.S S S }.|.1.2.3.4.5.,.. ",
". 6.- 7.8.9.0.{.S S S a.b.c.d.e.f.g.h.i.j.S S S k.l.m.n.o.p.6.. ",
". q.- r.s.t.u.S S v.w.x.y.z.A.B.C.D.E.F.G.H.I.S S J.K.L.M.N.q.. ",
". O.- P.Q.R.S S S S.T.U.V.W.X.Y.Z.`. +.+++@+#+S S S $+%+&+p O.. ",
". *+=+-+, ;+S S >+,+'+)+!+~+{+S S ]+~+^+/+(+_+:+S S <+[+}+|+*+. ",
". p > 1+2+S S ].3+4+5+6+7+8+9+S S 0+a+b+c+d+e+f+g+S S h+i+j+p . ",
". k+l+m+n+S S o+p+q+r+s+t+u+v+S S w+x+y+z+A+B+C+D+S S E+F+G+k+. ",
". 5.H+I+J+S S K+L+M+N+O+P+Q+v+S S R+S+T+U+V+W+X+Y+S S Z+`+ @5.. ",
". .@+@@@#@S S $@%@&@*@: =@-@;@S S R+>@,@'@)@!@~@{@S S ]@^@q..@. ",
". /@(@_@#@S S :@<@*@3 [@}@|@;@S S R+1@2@5.p.N.p {@S S 3@4@5@/@. ",
". 6@7@8@9@S S 0@a@3 b@}@|@c@;@S S R+d@5.p.N.p e@f@S S g@h@6.6@. ",
". i@8@j@k@S S l@m@b@}@|@c@6@;@S S R+n@p.N.p e@o@p@S S q@r@& i@. ",
". }@j@s@t@S S ].u@}@|@c@6@v@w@S S R+x@N.p j+o@y@g+S S z@A@,.}@. ",
". B@C@/ ( D@S S E@F@c@6@v@G@H@S S I@J@p j+o@O.K@S S L@M@ .N@B@. ",
". *@O@&@_ P@S S S Q@R@v@G@` S@T@I@U@V@j+o@O.W@S S S X@Y@Z@`@*@. ",
".  #.#+#@#b@##S S $#%#&#` 2@5.*#=#-#j+o@O.W@;#S S >#,#Z@1 '# #. ",
". s@_ @#b@}@)#!#S S S ~#{#5.p.N.p j+o@]#^#S S S /#(#_#1 q 1 s@. ",
". { 3 b@}@|@c@:#<#S S S [#}#|#1#2#3#4#g+S S S /#5#6#1 q 7#8#{ . ",
". 9#< }@|@c@6@v@0#a#S S S S S S S S S S S S b#u@c#1 q 7#d#q 9#. ",
". +@e#|@c@6@v@G@` 2@f#L@S S S S S S S S L@X@g#h#1 q 7#d#i#7#+@. ",
". j#b@c@6@v@G@` k#5.p.l#m#n#o#3@3@g@p#q#r#c#Z@1 q 7#d#i#s#`@j#. ",
". t#s@6@v@G@` k#5.p.u#p j+o@O.v#w#x#y#N@ .Z@1 q 7#d#i#s#$ z#t#. ",
". A#B#C#6@/@D#>.E#F#G#u#H#*+I#O.q.5@6.& J#,.`@ .'#1 q `@K#1+A#. ",
"  L#M#N#O#O#O#O#O#O#O#O#O#O#O#O#O#O#O#O#O#O#O#O#O#O#O#O#N#M#L#  ",
"    . . . . . . . . . . . . . . . . . . . . . . . . . . . .     "};
